<?xml version="1.0" standalone="no"?>
<!DOCTYPE svg PUBLIC "-//W3C//DTD SVG 20010904//EN"
 "http://www.w3.org/TR/2001/REC-SVG-20010904/DTD/svg10.dtd">
<svg version="1.0" xmlns="http://www.w3.org/2000/svg"
 width="567.000000pt" height="567.000000pt" viewBox="0 0 567.000000 567.000000"
 preserveAspectRatio="xMidYMid meet">

<g transform="translate(0.000000,567.000000) scale(0.100000,-0.100000)"
fill="#000000" stroke="none">
<path d="M4405 3966 c-135 -44 -207 -118 -221 -228 -11 -89 42 -139 191 -178
91 -25 120 -40 128 -69 16 -62 -119 -119 -181 -75 -15 11 -22 25 -22 50 l0 34
-99 0 -99 0 -6 -34 c-9 -47 8 -113 36 -143 47 -51 73 -58 213 -58 114 0 137 3
189 24 112 45 186 148 186 257 0 78 -66 126 -218 157 -40 9 -79 21 -87 27 -40
33 15 110 79 110 38 0 76 -24 76 -49 0 -15 11 -19 61 -25 34 -3 79 -6 100 -6
l39 0 0 60 c0 121 -43 153 -215 157 -71 2 -124 -2 -150 -11z"/>
<path d="M1085 3958 c-19 -57 -180 -679 -177 -683 3 -3 47 -5 98 -5 l92 0 11
33 c5 17 15 52 21 77 6 25 18 68 26 97 l15 52 136 3 136 3 12 42 c7 23 15 53
19 67 l6 26 -136 0 -136 0 7 28 c3 15 13 51 21 80 l15 52 148 0 149 0 16 65
c9 35 16 67 16 70 0 3 -110 5 -245 5 -188 0 -247 -3 -250 -12z"/>
<path d="M1671 3938 c-21 -67 -171 -640 -171 -654 0 -12 17 -14 97 -12 l96 3
54 200 c29 110 71 266 92 348 l39 147 -98 0 -98 0 -11 -32z"/>
<path d="M1995 3958 c-13 -37 -175 -658 -175 -672 0 -13 13 -16 84 -16 71 0
84 3 88 18 3 9 34 124 68 254 35 131 65 236 67 235 3 -3 93 -488 93 -501 0
-11 269 -6 275 4 6 9 185 676 185 687 0 2 -39 2 -87 1 l-88 -3 -65 -242 c-36
-134 -67 -243 -70 -243 -3 0 -25 105 -49 233 -24 127 -46 238 -48 245 -7 17
-272 17 -278 0z"/>
<path d="M2806 3953 c-20 -64 -176 -657 -176 -669 0 -12 34 -14 194 -14 221 0
276 8 365 52 86 41 144 102 188 194 84 177 63 358 -49 412 -68 34 -136 42
-334 42 -165 0 -183 -2 -188 -17z m344 -152 c37 -26 64 -87 62 -142 -2 -88
-80 -198 -164 -234 -49 -20 -193 -21 -185 -1 6 16 107 396 107 403 0 13 157
-10 180 -26z"/>
<path d="M3607 3963 c-3 -5 -44 -154 -91 -333 -48 -179 -89 -333 -92 -343 -5
-16 10 -17 262 -15 l267 3 18 65 c10 36 18 66 19 68 0 1 -74 2 -165 2 -91 0
-165 2 -165 5 0 3 7 35 16 70 l16 65 157 0 158 0 11 48 c6 26 14 57 18 70 l6
22 -156 0 c-86 0 -156 1 -156 3 1 1 9 31 19 67 l18 65 168 5 169 5 17 68 17
67 -264 0 c-144 0 -265 -3 -267 -7z"/>
</g>
</svg>
